<svg width="74" height="74" viewBox="0 0 74 74" fill="none" xmlns="http://www.w3.org/2000/svg">
<g clip-path="url(#clip0_263_372)">
<path fill-rule="evenodd" clip-rule="evenodd" d="M30.9549 10.9175C35.8647 12.1003 38.3197 12.1003 43.2295 10.9175C43.8387 10.7708 45.1384 10.7708 47.1286 10.9175C48.0058 10.9175 48.7169 11.5894 48.7169 12.4181C48.7169 12.6538 48.6581 12.8861 48.5454 13.0964L43.1769 23.1072C52.0685 29.7347 56.4844 38.2637 56.4246 48.6945C56.3963 53.6244 54.2663 66.292 37.0002 66.292C19.7341 66.292 17.5333 55.9629 17.5758 48.6945C17.6356 38.4545 22.0381 29.9446 30.7833 23.1648L25.4515 13.0892C25.0593 12.3479 25.3773 11.4466 26.1618 11.0759C26.3824 10.9718 26.6255 10.9175 26.8721 10.9175C28.8992 10.7501 30.2601 10.7501 30.9549 10.9175Z" stroke="#F49AC0" stroke-width="3"/>
<path d="M35.7669 23.742C35.7669 22.8905 35.0767 22.2003 34.2253 22.2003C33.3738 22.2003 32.6836 22.8905 32.6836 23.742V28.9837C32.6836 29.8351 33.3738 30.5253 34.2253 30.5253C35.0767 30.5253 35.7669 29.8351 35.7669 28.9837V23.742Z" fill="#F49AC0"/>
<path d="M45.2329 21.2753H28.8913C28.0398 21.2753 27.3496 21.9656 27.3496 22.817C27.3496 23.6684 28.0398 24.3587 28.8913 24.3587H45.2329C46.0844 24.3587 46.7746 23.6684 46.7746 22.817C46.7746 21.9656 46.0844 21.2753 45.2329 21.2753Z" fill="#F49AC0"/>
<path d="M58.4912 58.892H48.9329C46.8895 58.892 45.2329 60.5485 45.2329 62.592C45.2329 64.6354 46.8895 66.292 48.9329 66.292H58.4912C60.5347 66.292 62.1912 64.6354 62.1912 62.592C62.1912 60.5485 60.5347 58.892 58.4912 58.892Z" fill="#E8F7FF" stroke="#F49AC0" stroke-width="3"/>
<path d="M54.5752 51.492H45.0169C42.9734 51.492 41.3169 53.1486 41.3169 55.192C41.3169 57.2355 42.9734 58.892 45.0169 58.892H54.5752C56.6187 58.892 58.2752 57.2355 58.2752 55.192C58.2752 53.1486 56.6187 51.492 54.5752 51.492Z" fill="#E8F7FF" stroke="#F49AC0" stroke-width="3"/>
<path d="M58.5835 44.092H49.0252C46.9817 44.092 45.3252 45.7485 45.3252 47.792C45.3252 49.8354 46.9817 51.492 49.0252 51.492H58.5835C60.627 51.492 62.2835 49.8354 62.2835 47.792C62.2835 45.7485 60.627 44.092 58.5835 44.092Z" fill="#E8F7FF" stroke="#F49AC0" stroke-width="3"/>
</g>
<defs>
<clipPath id="clip0_263_372">
<rect width="74" height="74" fill="white" transform="translate(0 0.000305176)"/>
</clipPath>
</defs>
</svg>
