<svg width="164" height="161" viewBox="0 0 164 161" fill="none" xmlns="http://www.w3.org/2000/svg">
<g clip-path="url(#clip0_301_18)">
<path fill-rule="evenodd" clip-rule="evenodd" d="M14.5404 153.167L23.2258 158.405L20.9279 148.527L28.5944 141.883L18.4882 141.016L14.5404 131.703L10.5926 141.016L0.486328 141.883L8.15281 148.527L5.85498 158.405L14.5404 153.167Z" fill="#FBBC05"/>
</g>
<g clip-path="url(#clip1_301_18)">
<path fill-rule="evenodd" clip-rule="evenodd" d="M48.2701 153.167L56.9555 158.405L54.6577 148.527L62.3242 141.883L52.2179 141.016L48.2701 131.703L44.3223 141.016L34.2161 141.883L41.8826 148.527L39.5847 158.405L48.2701 153.167Z" fill="#FBBC05"/>
</g>
<g clip-path="url(#clip2_301_18)">
<path fill-rule="evenodd" clip-rule="evenodd" d="M81.9999 153.167L90.6853 158.405L88.3874 148.527L96.0539 141.883L85.9476 141.016L81.9999 131.703L78.0521 141.016L67.9458 141.883L75.6123 148.527L73.3144 158.405L81.9999 153.167Z" fill="#FBBC05"/>
</g>
<g clip-path="url(#clip3_301_18)">
<path fill-rule="evenodd" clip-rule="evenodd" d="M115.73 153.167L124.415 158.405L122.117 148.527L129.784 141.883L119.677 141.016L115.73 131.703L111.782 141.016L101.676 141.883L109.342 148.527L107.044 158.405L115.73 153.167Z" fill="#FBBC05"/>
</g>
<g clip-path="url(#clip4_301_18)">
<path fill-rule="evenodd" clip-rule="evenodd" d="M149.459 153.167L158.145 158.405L155.847 148.527L163.513 141.883L153.407 141.016L149.459 131.703L145.512 141.016L135.405 141.883L143.072 148.527L140.774 158.405L149.459 153.167Z" fill="#FBBC05"/>
</g>
<path fill-rule="evenodd" clip-rule="evenodd" d="M51.2287 54.0819C51.2287 50.5692 51.8118 47.201 52.8537 44.0423L34.6267 30.124C31.0742 37.3362 29.0732 45.4636 29.0732 54.0819C29.0732 62.6935 31.0726 70.815 34.6191 78.023L52.836 64.0777C51.8042 60.9333 51.2287 57.5778 51.2287 54.0819Z" fill="#FBBC05"/>
<path fill-rule="evenodd" clip-rule="evenodd" d="M83.2312 22.1242C90.8626 22.1242 97.7554 24.8283 103.171 29.2528L118.926 13.5203C109.325 5.16221 97.0168 0 83.2312 0C61.8286 0 43.4343 12.2392 34.6267 30.1232L52.8529 44.0414C57.0526 31.2935 69.024 22.1242 83.2312 22.1242Z" fill="#EA4335"/>
<path fill-rule="evenodd" clip-rule="evenodd" d="M83.2312 86.0378C69.0248 86.0378 57.0535 76.8685 52.8537 64.1206L34.6267 78.0363C43.4343 95.9228 61.8287 108.162 83.2312 108.162C96.4405 108.162 109.052 103.471 118.517 94.6832L101.217 81.3083C96.3349 84.3833 90.1874 86.0378 83.2312 86.0378Z" fill="#34A853"/>
<path fill-rule="evenodd" clip-rule="evenodd" d="M134.927 54.0802C134.927 50.8843 134.434 47.4426 133.695 44.2476H83.231V65.1423H112.279C110.827 72.2666 106.874 77.7432 101.216 81.3075L118.517 94.6824C128.46 85.4548 134.927 71.7081 134.927 54.0802Z" fill="#4285F4"/>
<defs>
<clipPath id="clip0_301_18">
<rect width="28.1081" height="29.5135" fill="white" transform="translate(0.486328 131)"/>
</clipPath>
<clipPath id="clip1_301_18">
<rect width="28.1081" height="29.5135" fill="white" transform="translate(34.2161 131)"/>
</clipPath>
<clipPath id="clip2_301_18">
<rect width="28.1081" height="29.5135" fill="white" transform="translate(67.9458 131)"/>
</clipPath>
<clipPath id="clip3_301_18">
<rect width="28.1081" height="29.5135" fill="white" transform="translate(101.676 131)"/>
</clipPath>
<clipPath id="clip4_301_18">
<rect width="28.1081" height="29.5135" fill="white" transform="translate(135.405 131)"/>
</clipPath>
</defs>
</svg>
