<svg width="54" height="53" viewBox="0 0 54 53" fill="none" xmlns="http://www.w3.org/2000/svg">
<path d="M53.8001 19.7587C53.3326 18.3927 52.1328 17.3925 50.6882 17.1754L36.6377 15.0588L30.5304 2.21232C29.8875 0.863387 28.5121 0 27 0C25.488 0 24.1126 0.863387 23.4697 2.21232L17.3624 15.0588L3.31017 17.1754C1.86731 17.3925 0.667459 18.3927 0.201694 19.7587C-0.262383 21.1282 0.0886282 22.6361 1.10791 23.6654L11.4054 34.0807L9.01748 48.5292C8.77447 49.9841 9.39718 51.4442 10.6173 52.2956C11.2872 52.7624 12.0753 53 12.8634 53C13.5114 53 14.1611 52.8393 14.7501 52.5196L27 45.8382L39.2517 52.5196C39.8406 52.8393 40.4904 53 41.1367 53C41.9248 53 42.7129 52.7624 43.3845 52.2956C44.6046 51.4442 45.2239 49.9841 44.9826 48.5292L42.593 34.0807L52.8939 23.6654C53.9115 22.6344 54.2608 21.1265 53.8001 19.7587ZM39.8052 31.3948C38.9412 32.2667 38.5497 33.496 38.7471 34.7013L41.1367 49.1498L28.885 42.4718C28.2978 42.1504 27.6498 41.9914 26.9984 41.9914C26.3503 41.9914 25.7006 42.1521 25.1134 42.4718L12.8617 49.1498L15.2513 34.7013C15.4504 33.496 15.0589 32.2667 14.1949 31.3948L3.89744 20.9795L17.948 18.8595C19.2322 18.6663 20.3376 17.8525 20.8894 16.6916L27 3.84848L33.109 16.6933C33.6625 17.8542 34.7662 18.6663 36.0487 18.8612L50.1027 20.9812L39.8052 31.3948Z" fill="#F49AC0"/>
</svg>
